<svg width="42" height="42" viewBox="0 0 42 42" fill="none" xmlns="http://www.w3.org/2000/svg">
<path d="M21 42C32.598 42 42 32.598 42 21C42 9.40202 32.598 0 21 0C9.40202 0 0 9.40202 0 21C0 32.598 9.40202 42 21 42Z" fill="#F9F9F9"/>
<path d="M31.8399 21.918H31.3045C31.7762 21.4387 32.1012 20.8218 32.2378 20.1464C32.3745 19.471 32.3165 18.768 32.0714 18.1276C31.8263 17.4872 31.4051 16.9386 30.8621 16.5522C30.319 16.1658 29.6788 15.9592 29.0236 15.959H28.4882C28.9598 15.4797 29.2848 14.8628 29.4215 14.1874C29.5581 13.512 29.5002 12.809 29.2551 12.1686C29.0099 11.5282 28.5888 10.9796 28.0457 10.5932C27.5027 10.2068 26.8625 10.0002 26.2073 10H15.9218C15.2594 10.0005 14.6125 10.212 14.0661 10.6066C13.5196 11.0012 13.099 11.5606 12.8594 12.2115C12.6198 12.8624 12.5723 13.5743 12.7232 14.2541C12.8741 14.9339 13.2164 15.5498 13.7051 16.0211C12.9996 15.8766 12.2685 15.9797 11.6239 16.3148C10.9792 16.6499 10.4566 17.1983 10.1359 17.8763C9.81515 18.5542 9.71406 19.3242 9.84812 20.0685C9.98217 20.8127 10.344 21.4901 10.8781 21.997C10.4296 21.9107 9.96904 21.9237 9.52557 22.035C9.0821 22.1464 8.66543 22.3537 8.30208 22.6439C7.93872 22.9341 7.63662 23.3007 7.41492 23.7206C7.19323 24.1404 7.05679 24.6042 7.0143 25.0826C6.97182 25.561 7.02423 26.0434 7.16816 26.4993C7.31208 26.9552 7.54439 27.3746 7.85035 27.7308C8.1563 28.087 8.52918 28.3722 8.94534 28.5684C9.3615 28.7645 9.81185 28.8673 10.2677 28.8702H31.8399C32.6896 28.8341 33.493 28.453 34.082 27.8066C34.6711 27.1602 35 26.2988 35 25.4026C35 24.5064 34.6711 23.6449 34.082 22.9986C33.493 22.3522 32.6896 21.9711 31.8399 21.935V21.918ZM29.0129 16.9183C29.3988 16.9182 29.7788 17.0179 30.1196 17.2088C30.4604 17.3997 30.7514 17.6759 30.9672 18.0131H29.5804C29.4782 18.0131 29.3801 18.0559 29.3078 18.1321C29.2355 18.2083 29.1949 18.3116 29.1949 18.4194C29.1949 18.5271 29.2355 18.6305 29.3078 18.7067C29.3801 18.7829 29.4782 18.8257 29.5804 18.8257H31.3045C31.3543 19.0188 31.3795 19.218 31.3795 19.4182C31.378 20.0787 31.1281 20.7117 30.6844 21.1782C30.2407 21.6447 29.6396 21.9068 29.0129 21.9068H21.0297C21.3492 21.5856 21.6037 21.1994 21.7776 20.7717C21.9515 20.344 22.0414 19.8835 22.0417 19.4182C22.0391 19.2288 22.0211 19.04 21.9881 18.8539H24.6438C24.7461 18.8539 24.8441 18.8111 24.9164 18.7349C24.9887 18.6587 25.0293 18.5554 25.0293 18.4476C25.0293 18.3398 24.9887 18.2365 24.9164 18.1603C24.8441 18.0841 24.7461 18.0413 24.6438 18.0413H21.7846C21.6098 17.6311 21.3627 17.2596 21.0565 16.9465L29.0129 16.9183ZM23.9424 25.3828C23.9424 25.8761 23.8036 26.3584 23.5436 26.7685C23.2835 27.1787 22.9139 27.4984 22.4815 27.6872C22.0491 27.876 21.5732 27.9254 21.1142 27.8291C20.6551 27.7329 20.2334 27.4953 19.9024 27.1465C19.5715 26.7977 19.3461 26.3533 19.2548 25.8694C19.1634 25.3856 19.2103 24.8841 19.3894 24.4283C19.5685 23.9726 19.8719 23.583 20.2611 23.309C20.6502 23.0349 21.1078 22.8886 21.5759 22.8886C21.8866 22.8886 22.1944 22.9531 22.4815 23.0785C22.7686 23.2038 23.0295 23.3875 23.2493 23.6192C23.469 23.8508 23.6434 24.1257 23.7623 24.4283C23.8812 24.731 23.9424 25.0553 23.9424 25.3828ZM15.9111 27.8714C15.4428 27.8714 14.985 27.725 14.5957 27.4506C14.2064 27.1763 13.9031 26.7865 13.7242 26.3304C13.5452 25.8743 13.4986 25.3725 13.5904 24.8885C13.6821 24.4045 13.908 23.9601 14.2395 23.6115C14.571 23.2629 14.9933 23.0258 15.4527 22.9302C15.9121 22.8346 16.3881 22.8848 16.8204 23.0745C17.2528 23.2641 17.622 23.5847 17.8814 23.9956C18.1408 24.4065 18.2787 24.8893 18.2776 25.3828C18.2776 26.0424 18.0298 26.6751 17.5883 27.1425C17.1468 27.61 16.5476 27.8741 15.9218 27.877L15.9111 27.8714ZM18.7542 16.9183C19.2225 16.9172 19.6805 17.0626 20.0704 17.3359C20.4603 17.6093 20.7645 17.9985 20.9444 18.4541C21.1244 18.9098 21.172 19.4114 21.0813 19.8956C20.9906 20.3798 20.7656 20.8248 20.4348 21.1742C20.1041 21.5236 19.6824 21.7617 19.2232 21.8584C18.764 21.9551 18.2879 21.906 17.8551 21.7174C17.4224 21.5288 17.0525 21.2091 16.7922 20.7988C16.5319 20.3885 16.393 19.9061 16.393 19.4125C16.393 18.752 16.6415 18.1184 17.0842 17.6508C17.5269 17.1833 18.1274 16.9198 18.7542 16.9183ZM16.5321 21.997C16.129 21.9148 15.7146 21.9148 15.3114 21.997C15.5532 21.7693 15.7592 21.5027 15.9218 21.207C16.0863 21.5013 16.292 21.7676 16.5321 21.997ZM18.1384 22.8491C18.3396 22.8899 18.544 22.9107 18.7488 22.9112H19.2842C19.0769 23.1286 18.8969 23.3733 18.7488 23.6391C18.5847 23.3395 18.379 23.0675 18.1384 22.8322V22.8491ZM26.1698 10.9988C26.7974 10.9988 27.3994 11.2616 27.8432 11.7293C28.287 12.1971 28.5364 12.8315 28.5364 13.493C28.5333 13.6833 28.51 13.8726 28.4668 14.0573H26.8605C26.7582 14.0573 26.6602 14.1001 26.5879 14.1763C26.5156 14.2525 26.475 14.3559 26.475 14.4636C26.475 14.5714 26.5156 14.6747 26.5879 14.7509C26.6602 14.8271 26.7582 14.8699 26.8605 14.8699H28.1455C27.9295 15.2064 27.6382 15.4818 27.2974 15.6717C26.9566 15.8617 26.5767 15.9603 26.1912 15.959H18.2187C18.5387 15.6375 18.7934 15.251 18.9674 14.8228C19.1414 14.3945 19.2311 13.9335 19.2311 13.4676C19.2311 13.0018 19.1414 12.5408 18.9674 12.1125C18.7934 11.6843 18.5387 11.2977 18.2187 10.9762L26.1698 10.9988ZM13.5445 13.493C13.5435 12.9992 13.6815 12.5162 13.9411 12.1052C14.2007 11.6942 14.5703 11.3736 15.0029 11.1841C15.4356 10.9946 15.9119 10.9448 16.3715 11.0408C16.831 11.1369 17.2532 11.3746 17.5845 11.7237C17.9158 12.0729 18.1413 12.5178 18.2324 13.0022C18.3236 13.4865 18.2762 13.9885 18.0965 14.4445C17.9167 14.9005 17.6125 15.2899 17.2225 15.5636C16.8325 15.8372 16.3742 15.9827 15.9057 15.9816C15.279 15.9756 14.6801 15.7079 14.2405 15.2371C13.8008 14.7663 13.5563 14.131 13.5606 13.4705L13.5445 13.493ZM15.9057 16.9578H16.4411C16.2338 17.1753 16.0538 17.4199 15.9057 17.6858C15.7403 17.3922 15.5346 17.126 15.2953 16.8958C15.503 16.9244 15.7128 16.9319 15.9218 16.9183L15.9057 16.9578ZM10.7228 19.4295C10.7218 18.9357 10.8598 18.4527 11.1194 18.0416C11.3791 17.6306 11.7486 17.3101 12.1813 17.1206C12.6139 16.9311 13.0902 16.8812 13.5498 16.9773C14.0093 17.0733 14.4315 17.311 14.7628 17.6601C15.0941 18.0093 15.3196 18.4542 15.4107 18.9386C15.5019 19.423 15.4546 19.925 15.2748 20.3809C15.095 20.8369 14.7908 21.2264 14.4008 21.5C14.0108 21.7737 13.5525 21.9191 13.084 21.918C12.4582 21.9165 11.8585 21.6539 11.416 21.1875C10.9734 20.7211 10.7242 20.089 10.7228 19.4295ZM13.084 22.8943C13.2889 22.8938 13.4932 22.8729 13.6944 22.8322C13.4566 23.0639 13.2511 23.3299 13.084 23.6222C12.9186 23.3286 12.713 23.0624 12.4737 22.8322C12.6784 22.8736 12.8863 22.8945 13.0947 22.8943H13.084ZM7.90649 25.3828C7.90543 24.889 8.04345 24.4061 8.30309 23.995C8.56272 23.584 8.9323 23.2634 9.36495 23.0739C9.7976 22.8845 10.2739 22.8346 10.7334 22.9307C11.193 23.0267 11.6152 23.2644 11.9465 23.6135C12.2778 23.9627 12.5033 24.4076 12.5944 24.892C12.6856 25.3764 12.6383 25.8783 12.4585 26.3343C12.2787 26.7903 11.9745 27.1798 11.5845 27.4534C11.1945 27.727 10.7362 27.8725 10.2677 27.8714C9.64192 27.8699 9.04216 27.6072 8.59966 27.1409C8.15715 26.6745 7.9079 26.0424 7.90649 25.3828ZM12.5486 27.8714C12.7587 27.6565 12.939 27.4115 13.084 27.1435C13.2308 27.4102 13.4109 27.6551 13.6194 27.8714H12.5486ZM18.2027 27.8714C18.4128 27.6565 18.5931 27.4115 18.7381 27.1435C18.8849 27.4102 19.065 27.6551 19.2735 27.8714H18.2027ZM31.8399 27.8714H23.8568C24.1655 27.5628 24.413 27.1926 24.5849 26.7823H27.0104C27.1126 26.7823 27.2107 26.7395 27.283 26.6633C27.3553 26.5871 27.3959 26.4838 27.3959 26.376C27.3959 26.2683 27.3553 26.1649 27.283 26.0887C27.2107 26.0125 27.1126 25.9697 27.0104 25.9697H24.8152C24.848 25.7835 24.8658 25.5947 24.8687 25.4054C24.8661 25.216 24.8482 25.0273 24.8152 24.8411H25.6237C25.7259 24.8411 25.8239 24.7983 25.8962 24.7221C25.9685 24.6459 26.0091 24.5426 26.0091 24.4348C26.0091 24.3271 25.9685 24.2237 25.8962 24.1475C25.8239 24.0713 25.7259 24.0285 25.6237 24.0285H24.5849C24.4121 23.6172 24.1647 23.2453 23.8568 22.9338H31.8399C32.4676 22.9338 33.0695 23.1966 33.5133 23.6643C33.9572 24.1321 34.2065 24.7665 34.2065 25.428C34.2035 25.6182 34.1801 25.8075 34.1369 25.9923H29.5804C29.4782 25.9923 29.3801 26.0351 29.3078 26.1113C29.2355 26.1875 29.1949 26.2908 29.1949 26.3986C29.1949 26.5063 29.2355 26.6097 29.3078 26.6859C29.3801 26.7621 29.4782 26.8049 29.5804 26.8049H33.7942C33.5764 27.1383 33.2843 27.4103 32.9436 27.5972C32.6029 27.7841 32.224 27.8802 31.8399 27.877V27.8714ZM15.9218 15.0392C16.2172 15.0392 16.5061 14.9469 16.7517 14.7739C16.9974 14.6009 17.1888 14.355 17.3019 14.0673C17.415 13.7796 17.4446 13.4631 17.3869 13.1577C17.3293 12.8523 17.187 12.5717 16.9781 12.3515C16.7691 12.1314 16.503 11.9814 16.2132 11.9207C15.9234 11.8599 15.6231 11.8911 15.3501 12.0103C15.0772 12.1294 14.8438 12.3312 14.6797 12.5901C14.5156 12.849 14.4279 13.1534 14.4279 13.4648C14.4272 13.672 14.4654 13.8774 14.5401 14.069C14.6149 14.2607 14.7248 14.4349 14.8636 14.5817C15.0024 14.7285 15.1673 14.845 15.3489 14.9245C15.5305 15.0039 15.7252 15.0448 15.9218 15.0448V15.0392ZM15.9218 12.703C16.0648 12.703 16.2045 12.7477 16.3234 12.8314C16.4422 12.9151 16.5349 13.0341 16.5896 13.1733C16.6443 13.3125 16.6586 13.4657 16.6307 13.6134C16.6028 13.7612 16.534 13.8969 16.4329 14.0035C16.3318 14.11 16.203 14.1826 16.0628 14.212C15.9226 14.2414 15.7772 14.2263 15.6452 14.1686C15.5131 14.111 15.4002 14.0133 15.3208 13.888C15.2414 13.7628 15.199 13.6155 15.199 13.4648C15.1989 13.365 15.2177 13.2662 15.2541 13.1741C15.2905 13.082 15.3438 12.9984 15.411 12.9281C15.4782 12.8578 15.5579 12.8022 15.6456 12.7646C15.7332 12.7269 15.8271 12.7079 15.9218 12.7086V12.703ZM18.7488 20.9982C19.0443 20.9982 19.3331 20.9059 19.5787 20.7329C19.8244 20.5599 20.0159 20.314 20.1289 20.0263C20.242 19.7386 20.2716 19.4221 20.2139 19.1167C20.1563 18.8113 20.014 18.5307 19.8051 18.3106C19.5962 18.0904 19.33 17.9404 19.0402 17.8797C18.7505 17.8189 18.4501 17.8501 18.1771 17.9693C17.9042 18.0884 17.6709 18.2902 17.5068 18.5491C17.3426 18.808 17.255 19.1124 17.255 19.4238C17.2543 19.6315 17.2926 19.8373 17.3677 20.0294C17.4428 20.2214 17.5532 20.3959 17.6925 20.5427C17.8319 20.6896 17.9974 20.806 18.1796 20.8851C18.3618 20.9642 18.5571 21.0046 18.7542 21.0039L18.7488 20.9982ZM18.7488 18.662C18.8918 18.662 19.0315 18.7067 19.1504 18.7904C19.2692 18.8741 19.3619 18.9931 19.4166 19.1323C19.4713 19.2715 19.4857 19.4247 19.4578 19.5724C19.4299 19.7202 19.361 19.856 19.2599 19.9625C19.1588 20.069 19.03 20.1416 18.8898 20.171C18.7496 20.2004 18.6043 20.1853 18.4722 20.1277C18.3401 20.07 18.2272 19.9723 18.1478 19.8471C18.0684 19.7218 18.026 19.5745 18.026 19.4238C18.026 19.3236 18.0449 19.2243 18.0816 19.1318C18.1183 19.0393 18.1722 18.9555 18.2399 18.8851C18.3077 18.8147 18.388 18.7593 18.4763 18.722C18.5646 18.6846 18.6591 18.6662 18.7542 18.6676L18.7488 18.662ZM13.0947 20.9982C13.3902 20.9982 13.679 20.9059 13.9247 20.7329C14.1703 20.5599 14.3618 20.314 14.4749 20.0263C14.5879 19.7386 14.6175 19.4221 14.5599 19.1167C14.5022 18.8113 14.36 18.5307 14.151 18.3106C13.9421 18.0904 13.676 17.9404 13.3862 17.8797C13.0964 17.8189 12.796 17.8501 12.5231 17.9693C12.2501 18.0884 12.0168 18.2902 11.8527 18.5491C11.6885 18.808 11.6009 19.1124 11.6009 19.4238C11.6002 19.6311 11.6383 19.8364 11.7131 20.028C11.7878 20.2197 11.8978 20.394 12.0365 20.5407C12.1753 20.6875 12.3402 20.804 12.5218 20.8835C12.7034 20.963 12.8981 21.0039 13.0947 21.0039V20.9982ZM13.0947 18.662C13.2377 18.662 13.3774 18.7067 13.4963 18.7904C13.6152 18.8741 13.7078 18.9931 13.7625 19.1323C13.8173 19.2715 13.8316 19.4247 13.8037 19.5724C13.7758 19.7202 13.7069 19.856 13.6059 19.9625C13.5048 20.069 13.376 20.1416 13.2358 20.171C13.0955 20.2004 12.9502 20.1853 12.8181 20.1277C12.6861 20.07 12.5732 19.9723 12.4937 19.8471C12.4143 19.7218 12.3719 19.5745 12.3719 19.4238C12.3719 19.324 12.3906 19.2252 12.427 19.1331C12.4634 19.041 12.5168 18.9574 12.584 18.8871C12.6511 18.8169 12.7309 18.7612 12.8185 18.7236C12.9062 18.6859 13.0001 18.6669 13.0947 18.6676V18.662ZM15.9218 23.8085C15.6263 23.8085 15.3375 23.9008 15.0919 24.0738C14.8462 24.2468 14.6547 24.4927 14.5417 24.7803C14.4286 25.068 14.399 25.3846 14.4567 25.69C14.5143 25.9954 14.6566 26.2759 14.8655 26.4961C15.0744 26.7163 15.3406 26.8662 15.6304 26.927C15.9201 26.9877 16.2205 26.9566 16.4935 26.8374C16.7664 26.7182 16.9997 26.5164 17.1638 26.2575C17.328 25.9986 17.4156 25.6942 17.4156 25.3828C17.4142 24.9663 17.2562 24.5673 16.9762 24.2732C16.6962 23.9792 16.3171 23.8141 15.9218 23.8141V23.8085ZM15.9218 26.1446C15.7788 26.1446 15.6391 26.1 15.5202 26.0163C15.4013 25.9326 15.3087 25.8136 15.254 25.6744C15.1993 25.5352 15.1849 25.382 15.2128 25.2342C15.2407 25.0864 15.3096 24.9507 15.4107 24.8442C15.5118 24.7376 15.6406 24.6651 15.7808 24.6357C15.921 24.6063 16.0663 24.6214 16.1984 24.679C16.3305 24.7367 16.4433 24.8343 16.5228 24.9596C16.6022 25.0849 16.6446 25.2322 16.6446 25.3828C16.6446 25.5854 16.5686 25.7797 16.4332 25.9235C16.2978 26.0673 16.114 26.1488 15.9218 26.1503V26.1446ZM21.5759 26.9572C21.8713 26.9572 22.1601 26.8649 22.4058 26.6919C22.6515 26.5189 22.8429 26.273 22.956 25.9853C23.069 25.6976 23.0986 25.3811 23.041 25.0757C22.9833 24.7703 22.841 24.4897 22.6321 24.2696C22.4232 24.0494 22.1571 23.8994 21.8673 23.8387C21.5775 23.7779 21.2772 23.8091 21.0042 23.9283C20.7312 24.0474 20.4979 24.2492 20.3338 24.5081C20.1696 24.7671 20.082 25.0715 20.082 25.3828C20.0813 25.5901 20.1194 25.7954 20.1942 25.9871C20.269 26.1787 20.3789 26.353 20.5177 26.4998C20.6564 26.6466 20.8214 26.763 21.003 26.8425C21.1845 26.922 21.3792 26.9629 21.5759 26.9629V26.9572ZM21.5759 24.621C21.7188 24.621 21.8586 24.6657 21.9774 24.7494C22.0963 24.8331 22.1889 24.9521 22.2436 25.0913C22.2983 25.2305 22.3127 25.3837 22.2848 25.5315C22.2569 25.6792 22.1881 25.815 22.087 25.9215C21.9859 26.0281 21.8571 26.1006 21.7169 26.13C21.5767 26.1594 21.4313 26.1443 21.2992 26.0867C21.1671 26.029 21.0543 25.9313 20.9748 25.8061C20.8954 25.6808 20.853 25.5335 20.853 25.3828C20.853 25.2831 20.8718 25.1843 20.9081 25.0921C20.9445 25 20.9979 24.9164 21.065 24.8462C21.1322 24.7759 21.212 24.7203 21.2997 24.6826C21.3873 24.6449 21.4812 24.6259 21.5759 24.6267V24.621ZM11.7615 25.3828C11.7615 25.0715 11.6739 24.7671 11.5098 24.5081C11.3456 24.2492 11.1124 24.0474 10.8394 23.9283C10.5664 23.8091 10.2661 23.7779 9.97629 23.8387C9.68651 23.8994 9.42034 24.0494 9.21142 24.2696C9.0025 24.4897 8.86024 24.7703 8.8026 25.0757C8.74496 25.3811 8.77453 25.6976 8.8876 25.9853C9.00066 26.273 9.19213 26.5189 9.43779 26.6919C9.68345 26.8649 9.97227 26.9572 10.2677 26.9572C10.6639 26.9572 11.0438 26.7914 11.324 26.4961C11.6041 26.2009 11.7615 25.8004 11.7615 25.3828ZM9.54488 25.3828C9.54488 25.2322 9.58729 25.0849 9.66671 24.9596C9.74614 24.8343 9.85901 24.7367 9.99109 24.679C10.1232 24.6214 10.2685 24.6063 10.4087 24.6357C10.5489 24.6651 10.6777 24.7376 10.7788 24.8442C10.8799 24.9507 10.9488 25.0864 10.9766 25.2342C11.0045 25.382 10.9902 25.5352 10.9355 25.6744C10.8808 25.8136 10.7882 25.9326 10.6693 26.0163C10.5504 26.1 10.4107 26.1446 10.2677 26.1446C10.1728 26.1446 10.0788 26.1249 9.99109 26.0867C9.90339 26.0484 9.82373 25.9923 9.75661 25.9215C9.68949 25.8508 9.63624 25.7668 9.59992 25.6744C9.56359 25.5819 9.54488 25.4829 9.54488 25.3828ZM22.5985 12.4716C22.5985 12.4183 22.6085 12.3655 22.6278 12.3162C22.6472 12.2669 22.6756 12.2221 22.7114 12.1844C22.7472 12.1466 22.7897 12.1167 22.8365 12.0963C22.8832 12.0759 22.9334 12.0654 22.984 12.0654H26.5232C26.6254 12.0654 26.7234 12.1082 26.7957 12.1844C26.868 12.2606 26.9087 12.3639 26.9087 12.4716C26.9087 12.5794 26.868 12.6827 26.7957 12.7589C26.7234 12.8351 26.6254 12.878 26.5232 12.878H22.984C22.8827 12.878 22.7855 12.8359 22.7133 12.761C22.6412 12.686 22.5999 12.5841 22.5985 12.4773V12.4716ZM19.8143 12.4716C19.8143 12.4183 19.8243 12.3655 19.8436 12.3162C19.863 12.2669 19.8914 12.2221 19.9272 12.1844C19.963 12.1466 20.0055 12.1167 20.0523 12.0963C20.099 12.0759 20.1492 12.0654 20.1998 12.0654H21.1903C21.2926 12.0654 21.3907 12.1082 21.463 12.1844C21.5352 12.2606 21.5759 12.3639 21.5759 12.4716C21.5759 12.5794 21.5352 12.6827 21.463 12.7589C21.3907 12.8351 21.2926 12.878 21.1903 12.878H20.1998C20.1004 12.875 20.0058 12.8317 19.936 12.7571C19.8661 12.6824 19.8264 12.5821 19.825 12.4773L19.8143 12.4716ZM24.0977 14.458C24.0977 14.5657 24.0571 14.6691 23.9848 14.7453C23.9125 14.8215 23.8144 14.8643 23.7122 14.8643H20.4461C20.3439 14.8643 20.2458 14.8215 20.1735 14.7453C20.1012 14.6691 20.0606 14.5657 20.0606 14.458C20.0606 14.3502 20.1012 14.2469 20.1735 14.1707C20.2458 14.0945 20.3439 14.0517 20.4461 14.0517H23.7122C23.7642 14.0501 23.8159 14.0597 23.8643 14.0798C23.9126 14.0999 23.9566 14.1301 23.9937 14.1686C24.0307 14.2071 24.0599 14.2531 24.0796 14.3038C24.0994 14.3545 24.1091 14.4088 24.1084 14.4636L24.0977 14.458ZM26.3732 18.4081C26.3841 18.3033 26.4331 18.207 26.5101 18.1396C26.587 18.0722 26.6858 18.039 26.7855 18.0469H27.942C28.0443 18.0469 28.1423 18.0897 28.2146 18.1659C28.2869 18.2421 28.3275 18.3455 28.3275 18.4532C28.3275 18.561 28.2869 18.6643 28.2146 18.7405C28.1423 18.8167 28.0443 18.8595 27.942 18.8595H26.7855C26.7331 18.8603 26.681 18.8499 26.6325 18.8287C26.584 18.8076 26.5402 18.7763 26.5036 18.7367C26.467 18.697 26.4385 18.65 26.4197 18.5983C26.401 18.5467 26.3925 18.4915 26.3947 18.4363L26.3732 18.4081ZM23.8782 19.9881H29.393C29.4953 19.9881 29.5933 20.0309 29.6656 20.1071C29.7379 20.1833 29.7785 20.2866 29.7785 20.3944C29.7785 20.5022 29.7379 20.6055 29.6656 20.6817C29.5933 20.7579 29.4953 20.8007 29.393 20.8007H23.8782C23.7759 20.8007 23.6779 20.7579 23.6056 20.6817C23.5333 20.6055 23.4927 20.5022 23.4927 20.3944C23.4927 20.2866 23.5333 20.1833 23.6056 20.1071C23.6779 20.0309 23.7759 19.9881 23.8782 19.9881ZM31.6739 24.8185H27.4655C27.3633 24.8185 27.2652 24.7757 27.1929 24.6995C27.1206 24.6233 27.08 24.52 27.08 24.4123C27.08 24.3045 27.1206 24.2011 27.1929 24.1249C27.2652 24.0487 27.3633 24.0059 27.4655 24.0059H31.6739C31.7762 24.0059 31.8742 24.0487 31.9465 24.1249C32.0188 24.2011 32.0594 24.3045 32.0594 24.4123C32.0594 24.52 32.0188 24.6233 31.9465 24.6995C31.8742 24.7757 31.7762 24.8185 31.6739 24.8185Z" fill="#FBB829"/>
</svg>
